<?xml version="1.0" standalone="no"?>
<!DOCTYPE svg PUBLIC "-//W3C//DTD SVG 20010904//EN"
 "http://www.w3.org/TR/2001/REC-SVG-20010904/DTD/svg10.dtd">
<svg version="1.0" xmlns="http://www.w3.org/2000/svg"
 width="1000.000000pt" height="1000.000000pt" viewBox="0 0 1000.000000 1000.000000"
 preserveAspectRatio="xMidYMid meet">
<metadata>
Created by potrace 1.15, written by Peter Selinger 2001-2017
</metadata>
<g transform="translate(0.000000,1000.000000) scale(0.100000,-0.100000)"
fill="#000000" stroke="none">
<path d="M4530 9984 c-824 -81 -1549 -327 -2230 -757 -952 -601 -1690 -1553
-2054 -2649 -173 -519 -246 -977 -246 -1543 0 -452 42 -802 146 -1220 303
-1218 1046 -2278 2084 -2972 695 -464 1506 -750 2350 -828 203 -19 677 -19
880 0 452 41 860 135 1299 296 372 137 682 295 1026 525 312 207 524 383 790
656 396 405 687 819 936 1332 330 681 488 1387 489 2172 0 465 -58 878 -189
1339 -203 713 -545 1352 -1029 1920 -197 230 -537 550 -787 737 -675 507
-1544 862 -2368 968 -323 41 -812 52 -1097 24z m895 -868 c975 -120 1855 -547
2516 -1223 456 -466 777 -992 983 -1615 227 -682 272 -1323 146 -2053 -132
-764 -531 -1532 -1099 -2117 -665 -686 -1487 -1091 -2481 -1224 -192 -26 -734
-26 -935 -1 -707 91 -1316 318 -1884 704 -911 619 -1543 1598 -1745 2704 -51
281 -60 392 -60 739 0 327 8 449 49 685 119 687 414 1337 861 1895 374 468
808 819 1344 1089 498 250 1028 395 1590 435 125 9 590 -3 715 -18z"/>
<path d="M4844 9020 c-181 -21 -412 -97 -565 -186 -290 -169 -520 -462 -628
-797 -102 -320 -76 -710 70 -1026 66 -142 161 -274 288 -401 191 -190 373
-297 626 -368 133 -38 207 -47 365 -46 244 2 417 42 613 140 395 198 663 549
759 993 30 139 30 386 0 531 -27 130 -72 269 -124 378 -177 373 -560 671 -980
763 -103 22 -310 31 -424 19z"/>
<path d="M2420 7280 c-245 -23 -485 -106 -685 -238 -92 -61 -252 -216 -331
-322 -63 -85 -160 -258 -190 -341 -97 -266 -116 -527 -59 -804 56 -269 187
-508 390 -710 199 -200 426 -324 706 -387 145 -32 412 -32 569 1 424 90 789
377 971 765 94 201 139 398 139 605 0 146 -11 228 -45 361 -107 420 -360 733
-750 929 -232 116 -471 164 -715 141z"/>
<path d="M7360 7280 c-388 -37 -737 -219 -965 -503 -230 -286 -337 -604 -322
-957 18 -393 161 -710 443 -980 196 -187 433 -311 706 -367 125 -26 408 -23
545 6 183 38 324 99 494 212 298 200 506 513 591 890 32 145 32 396 0 546 -81
374 -253 655 -529 862 -112 84 -291 182 -411 225 -157 56 -379 82 -552 66z"/>
<path d="M4130 6023 c0 -66 -9 -173 -19 -243 -11 -68 -18 -127 -15 -131 2 -4
-2 -10 -8 -13 -7 -4 -3 -4 10 -2 18 3 81 -37 267 -170 134 -96 245 -174 247
-174 2 0 28 23 57 51 31 30 83 65 126 86 l73 34 -13 47 c-71 236 -167 537
-173 543 -4 3 -43 12 -87 18 -44 7 -161 26 -260 42 -99 16 -186 29 -192 29
-10 0 -13 -30 -13 -117z"/>
<path d="M5530 6097 c-129 -22 -236 -41 -237 -42 -4 -2 -171 -547 -175 -569
-2 -15 9 -24 53 -41 74 -29 136 -73 192 -135 25 -27 48 -50 51 -50 4 0 115 77
247 172 199 143 240 176 236 193 -45 205 -86 443 -87 503 0 17 -12 15 -280
-31z"/>
<path d="M4765 6040 c-1 -3 25 -132 59 -288 l61 -283 104 3 105 3 12 60 c7 33
34 155 59 270 25 116 45 217 45 225 0 13 -31 15 -221 15 -121 0 -222 -2 -224
-5z"/>
<path d="M4050 5493 c-74 -285 -222 -601 -394 -840 -36 -51 -66 -94 -66 -96 0
-2 26 -10 58 -17 93 -20 205 -65 339 -135 70 -36 132 -64 140 -61 12 5 456
328 477 347 5 5 -6 38 -28 81 -24 48 -40 100 -48 151 l-13 77 -313 0 c-294 0
-313 1 -308 18 17 61 17 62 34 52 9 -5 125 -16 257 -25 132 -9 261 -18 286
-21 l46 -6 12 63 c7 35 26 92 43 127 16 35 28 65 26 67 -8 7 -517 305 -521
305 -2 0 -14 -39 -27 -87z"/>
<path d="M5664 5384 l-241 -145 23 -57 c13 -31 26 -78 30 -105 4 -26 10 -50
15 -52 4 -3 56 -1 116 4 59 5 188 15 286 22 111 8 177 16 177 23 0 6 -12 42
-27 81 -15 38 -48 137 -74 219 -25 83 -50 151 -55 152 -5 1 -118 -63 -250
-142z"/>
<path d="M4890 5416 c-141 -39 -260 -154 -305 -294 -13 -41 -16 -77 -13 -150
3 -84 8 -106 37 -165 107 -222 366 -311 588 -202 159 78 254 244 240 420 -14
180 -135 332 -306 385 -72 23 -172 25 -241 6z"/>
<path d="M5487 4993 c-4 -3 -7 -23 -7 -43 0 -48 -26 -133 -58 -193 -14 -26
-23 -49 -21 -51 37 -33 476 -346 485 -346 6 0 49 18 95 41 85 42 266 118 332
139 20 6 37 13 37 14 0 2 -25 41 -56 87 -31 46 -87 145 -125 221 l-69 138
-303 0 c-167 0 -307 -3 -310 -7z"/>
<path d="M5366 4675 c-6 -17 -121 -103 -153 -116 -24 -9 -30 8 162 -459 13
-30 27 -56 33 -58 5 -1 33 17 63 41 64 52 224 163 292 202 26 15 47 31 45 35
-5 14 -416 370 -426 370 -5 0 -12 -7 -16 -15z"/>
<path d="M4408 4493 c-119 -104 -217 -191 -217 -195 -1 -3 56 -47 127 -97 70
-49 161 -117 202 -150 41 -34 78 -61 81 -61 4 0 143 330 226 537 3 7 -17 23
-44 37 -27 13 -72 45 -100 70 -28 25 -53 46 -55 46 -2 0 -101 -84 -220 -187z"/>
<path d="M5105 4523 c-34 -10 -74 -12 -125 -8 -41 3 -88 7 -104 8 l-29 2 -89
-279 c-48 -154 -93 -283 -100 -288 -9 -6 21 -41 103 -121 64 -61 141 -140 172
-174 31 -35 60 -63 64 -63 4 1 42 42 83 91 41 50 119 137 172 192 l97 102 -76
240 c-41 132 -80 257 -85 278 -11 41 -11 41 -83 20z"/>
<path d="M3209 4355 c-171 -27 -346 -85 -483 -159 -247 -135 -464 -367 -591
-631 -90 -190 -124 -329 -131 -545 -10 -283 44 -518 174 -755 131 -238 361
-458 606 -582 400 -202 881 -197 1274 12 331 176 578 476 688 835 108 351 73
723 -101 1075 -157 316 -467 580 -825 699 -191 64 -410 82 -611 51z"/>
<path d="M6415 4355 c-415 -66 -748 -273 -967 -599 -223 -334 -295 -704 -212
-1103 86 -419 378 -790 769 -978 199 -95 384 -139 595 -138 339 1 587 83 856
284 264 197 451 496 529 844 22 97 31 342 16 446 -71 503 -338 884 -779 1107
-262 133 -537 180 -807 137z"/>
</g>
</svg>
