<svg id="svg" xmlns="http://www.w3.org/2000/svg" xmlns:xlink="http://www.w3.org/1999/xlink" width="400" height="400" viewBox="0, 0, 400,400"><g id="svgg"><path id="path0" d="M181.200 0.634 C 41.062 14.454,-40.914 160.648,20.400 287.400 C 73.029 396.197,210.677 433.651,311.400 366.579 C 411.148 300.157,429.732 161.843,351.275 69.800 C 310.175 21.582,243.547 -5.515,181.200 0.634 M217.000 35.380 C 343.401 50.827,407.641 192.164,335.384 295.840 C 294.450 354.571,218.946 379.701,149.855 357.589 C 53.409 326.720,6.637 216.316,51.660 125.800 C 77.934 72.979,129.122 38.857,188.400 34.650 C 193.392 34.296,212.020 34.771,217.000 35.380 M193.772 39.218 C 146.535 44.599,126.643 102.008,160.373 135.610 C 190.119 165.244,239.091 153.830,252.874 114.050 C 266.206 75.575,233.882 34.648,193.772 39.218 M96.800 108.804 C 48.442 113.295,27.478 171.131,61.781 205.417 C 94.107 237.727,148.982 220.019,156.567 174.830 C 162.570 139.067,132.200 105.517,96.800 108.804 M294.400 108.811 C 245.565 113.466,225.150 172.485,260.645 206.400 C 290.085 234.530,338.400 222.861,351.929 184.352 C 365.392 146.033,334.159 105.021,294.400 108.811 M165.195 159.100 C 165.193 161.712,164.850 166.013,164.423 168.783 C 164.001 171.524,163.734 173.893,163.830 174.049 C 163.926 174.204,163.779 174.439,163.502 174.570 C 163.226 174.702,163.418 174.730,163.930 174.634 C 164.640 174.501,167.158 176.104,174.602 181.430 C 179.961 185.263,184.413 188.400,184.496 188.400 C 184.579 188.400,185.599 187.483,186.761 186.362 C 188.003 185.165,190.085 183.750,191.807 182.932 L 194.739 181.540 194.180 179.670 C 191.361 170.237,187.539 158.186,187.298 157.972 C 187.134 157.827,185.560 157.490,183.800 157.223 C 182.040 156.957,177.360 156.214,173.400 155.572 C 169.440 154.930,165.975 154.403,165.700 154.402 C 165.329 154.401,165.199 155.608,165.195 159.100 M221.200 156.118 C 216.030 157.009,211.756 157.766,211.702 157.801 C 211.555 157.895,204.887 179.676,204.733 180.567 C 204.628 181.172,205.076 181.520,206.854 182.216 C 209.813 183.374,212.279 185.103,214.509 187.584 C 215.506 188.693,216.434 189.600,216.572 189.600 C 217.675 189.600,236.039 175.728,235.883 175.013 C 234.091 166.808,232.445 157.279,232.408 154.900 C 232.397 154.218,231.927 154.270,221.200 156.118 M190.608 158.400 C 190.545 158.510,191.597 163.690,192.947 169.912 L 195.400 181.223 199.573 181.112 L 203.746 181.000 204.254 178.600 C 204.533 177.280,205.580 172.420,206.581 167.800 C 207.581 163.179,208.400 159.129,208.400 158.800 C 208.400 158.215,190.941 157.822,190.608 158.400 M162.011 180.300 C 159.056 191.665,153.117 204.315,146.244 213.881 C 143.077 218.289,143.117 217.766,145.900 218.382 C 149.658 219.215,154.140 221.000,159.499 223.797 C 162.274 225.245,164.778 226.340,165.064 226.231 C 165.542 226.047,183.331 213.136,184.163 212.368 C 184.376 212.173,183.916 210.821,183.057 209.117 C 182.092 207.200,181.422 205.137,181.104 203.100 L 180.620 200.000 168.083 200.000 C 156.335 200.000,155.558 199.956,155.741 199.300 C 156.432 196.825,156.437 196.817,157.123 197.190 C 157.496 197.392,162.120 197.844,167.400 198.194 C 172.680 198.545,177.828 198.934,178.839 199.059 L 180.679 199.287 181.173 196.743 C 181.446 195.345,182.209 193.061,182.869 191.669 C 183.530 190.276,184.010 189.084,183.935 189.020 C 183.613 188.740,163.249 176.800,163.094 176.800 C 162.999 176.800,162.512 178.375,162.011 180.300 M226.550 184.652 L 216.900 190.427 217.840 192.713 C 218.357 193.971,218.898 195.859,219.043 196.909 C 219.379 199.351,219.203 199.286,224.277 198.835 C 226.655 198.624,231.795 198.231,235.700 197.961 C 240.160 197.653,242.800 197.312,242.800 197.044 C 242.800 196.809,242.313 195.353,241.717 193.808 C 241.121 192.264,239.799 188.309,238.780 185.021 C 237.760 181.733,236.763 179.005,236.563 178.960 C 236.363 178.914,231.858 181.476,226.550 184.652 M195.600 183.372 C 182.715 186.958,178.391 203.174,187.809 212.591 C 199.114 223.896,218.718 214.917,217.481 199.000 C 216.637 188.126,205.948 180.493,195.600 183.372 M219.467 200.267 C 219.320 200.413,219.200 201.191,219.200 201.994 C 219.200 203.910,218.179 207.327,216.897 209.702 C 216.333 210.748,215.945 211.669,216.035 211.749 C 217.526 213.065,235.071 225.600,235.422 225.600 C 235.691 225.600,237.402 224.864,239.223 223.965 C 242.643 222.276,249.863 219.259,252.500 218.417 C 254.324 217.834,254.418 218.347,251.760 214.375 C 250.527 212.534,248.276 208.547,246.757 205.514 L 243.995 200.000 231.864 200.000 C 225.192 200.000,219.613 200.120,219.467 200.267 M214.660 212.988 C 214.398 213.671,209.820 217.129,208.517 217.629 C 207.569 217.992,207.337 217.337,215.015 235.986 C 216.158 238.762,216.258 238.780,218.845 236.680 C 221.404 234.601,227.819 230.166,230.517 228.610 C 232.940 227.212,233.552 228.047,223.931 219.632 C 215.532 212.286,215.059 211.947,214.660 212.988 M176.321 220.300 C 171.551 224.425,167.637 227.917,167.624 228.061 C 167.611 228.205,169.895 229.950,172.700 231.940 C 175.505 233.930,179.150 236.647,180.800 237.976 C 182.450 239.306,183.903 240.396,184.030 240.397 C 184.201 240.399,189.767 227.187,193.077 218.924 C 193.184 218.655,192.416 218.016,191.316 217.459 C 190.242 216.915,188.446 215.644,187.323 214.635 C 186.201 213.626,185.217 212.800,185.138 212.800 C 185.059 212.800,181.091 216.175,176.321 220.300 M204.200 219.072 C 202.829 219.465,201.257 219.570,199.200 219.407 C 197.550 219.276,195.674 219.130,195.031 219.084 L 193.863 219.000 190.336 230.174 C 188.396 236.319,186.582 241.495,186.304 241.675 C 185.950 241.905,187.177 243.340,190.433 246.501 C 192.981 248.976,196.077 252.125,197.312 253.500 C 200.078 256.579,199.615 256.670,203.196 252.344 C 204.844 250.354,207.940 246.897,210.077 244.663 L 213.962 240.600 210.936 231.000 C 209.272 225.720,207.729 220.725,207.507 219.900 C 207.063 218.251,207.065 218.252,204.200 219.072 M128.348 225.815 C 81.668 233.089,63.573 289.169,97.176 322.420 C 127.056 351.985,177.443 339.150,189.848 298.814 C 201.906 259.607,168.204 219.605,128.348 225.815 M256.600 225.802 C 204.800 234.061,190.173 300.231,233.714 329.329 C 269.731 353.398,318.538 328.260,320.272 284.747 C 321.686 249.294,290.475 220.401,256.600 225.802 " stroke="none" fill="#FFFFFF" fill-rule="evenodd"></path></g></svg>